<svg t="1583484746270" class="icon" viewBox="0 0 1024 1024" version="1.1" xmlns="http://www.w3.org/2000/svg" p-id="3836" width="200" height="200"><path d="M257.8432 759.7056c0 34.6112 25.8048 62.7712 57.4464 62.7712h41.472c-1.4336 5.4272-2.1504 10.9568-2.1504 16.4864v125.5424c0 32.8704 24.3712 59.4944 54.4768 59.4944 30.1056 0 54.4768-26.624 54.4768-59.4944V838.9632c0-5.7344-0.8192-11.264-2.1504-16.4864h101.1712c-1.4336 5.4272-2.1504 10.9568-2.1504 16.4864v125.5424c0 32.8704 24.3712 59.4944 54.4768 59.4944 30.1056 0 54.4768-26.624 54.4768-59.4944V838.9632c0-5.5296-0.7168-11.1616-2.1504-16.4864h41.472c31.6416 0 57.4464-28.16 57.4464-62.7712V323.6864H257.8432v436.0192z m-90.7264-436.0192c-30.1056 0-54.4768 26.624-54.4768 59.4944v254.3616c0 32.8704 24.3712 59.4944 54.4768 59.4944 30.0032 0 54.4768-26.624 54.4768-59.4944V383.1808c0-32.8704-24.3712-59.4944-54.4768-59.4944zM636.928 85.7088l10.24-16.7936 10.0352-16.4864L679.8336 15.36c2.7648-4.5056 1.6384-10.5472-2.56-13.7216-2.048-1.4336-4.5056-1.9456-6.8608-1.4336-2.4576 0.512-4.5056 2.048-5.7344 4.1984l-24.2688 39.7312-10.1376 16.6912-10.24 16.9984C585.8304 63.3856 549.0688 56.0128 512 56.1152c-38.6048 0-75.1616 7.7824-108.032 21.7088l-10.3424-16.896-10.24-16.7936-24.1664-39.7312c-1.2288-2.1504-3.2768-3.6864-5.7344-4.1984-2.3552-0.512-4.9152 0-6.8608 1.4336-4.1984 3.2768-5.3248 9.216-2.56 13.7216l22.6304 37.0688 10.1376 16.5888 10.24 16.7936C309.9648 124.928 257.9456 199.168 257.9456 284.16h508.3136c-0.1024-84.992-52.224-159.3344-129.3312-198.4512zM403.0464 204.8c-15.0528 0-27.2384-13.312-27.2384-29.696s12.1856-29.696 27.2384-29.696c15.0528 0 27.2384 13.312 27.2384 29.696s-12.1856 29.696-27.2384 29.696z m217.9072 0c-15.0528 0-27.136-13.312-27.136-29.696s12.1856-29.696 27.136-29.696c15.0528 0 27.2384 13.312 27.2384 29.696s-12.1856 29.696-27.2384 29.696z m235.9296 118.8864c-30.1056 0-54.4768 26.624-54.4768 59.4944v254.3616c0 32.8704 24.3712 59.4944 54.4768 59.4944 30.0032 0 54.4768-26.624 54.4768-59.4944V383.1808c0-32.8704-24.3712-59.4944-54.4768-59.4944z m0 0" fill="#5D5D5D" p-id="3837"></path></svg>