<svg t="1591153412139" class="icon" viewBox="0 0 1024 1024" version="1.1" xmlns="http://www.w3.org/2000/svg" p-id="4829" data-spm-anchor-id="a313x.7781069.0.i15" width="200" height="200"><path d="M-387.117056 144.707584A0.284 0 0 1 1-387.117056 146.755584Z" p-id="4830"></path><path d="M348.878848 257.583104l347.928576 0 0 90.763264-347.928576 0 0-90.763264Z" p-id="4831" data-spm-anchor-id="a313x.7781069.0.i17" class="" fill="#dbdbdb"></path><path d="M348.878848 397.359104l347.928576 0 0 90.763264-347.928576 0 0-90.763264Z" p-id="4832" data-spm-anchor-id="a313x.7781069.0.i16" class="" fill="#dbdbdb"></path><path d="M348.878848 537.135104l347.928576 0 0 90.761216-347.928576 0 0-90.761216Z" p-id="4833" data-spm-anchor-id="a313x.7781069.0.i14" class="selected" fill="#E6A23C"></path><path d="M348.878848 676.911104l347.928576 0 0 90.761216-347.928576 0 0-90.761216Z" p-id="4834" data-spm-anchor-id="a313x.7781069.0.i13" class="selected" fill="#E6A23C"></path><path d="M348.878848 816.687104l347.928576 0 0 90.761216-347.928576 0 0-90.761216Z" p-id="4835" data-spm-anchor-id="a313x.7781069.0.i12" class="selected" fill="#E6A23C"></path><path d="M620.005376 172.638208 620.005376 129.581056l-194.326528 0 0 43.055104-151.855104 0 0 813.379584 498.038784 0L771.862528 172.638208 620.005376 172.638208zM721.823744 934.81984 323.862528 934.81984l0-710.98368 397.961216 0L721.823744 934.81984z" p-id="4836" data-spm-anchor-id="a313x.7781069.0.i18" class=""></path></svg>