<svg t="1594889616402" class="icon" viewBox="0 0 1024 1024" version="1.1" xmlns="http://www.w3.org/2000/svg" p-id="2115" width="200" height="200"><path d="M721.74 88.59a284.08 284.08 0 0 0-202.2-83.75h-16.06a286 286 0 0 0-286 286v298.69a286 286 0 0 0 264 285.12v84.51H362.76a30 30 0 0 0 0 60h297.5a30 30 0 0 0 0-60H541.51v-84.51a286 286 0 0 0 264-285.12V290.79a284.08 284.08 0 0 0-83.77-202.2z m23.75 500.94c0 124.59-101.36 226-226 226h-16.01c-124.59 0-226-101.36-226-226V290.79c0-124.59 101.36-226 226-226h16.05c124.59 0 226 101.36 226 226z" fill="#cdcdcd" p-id="2116"></path><path d="M511.51 110.07c-101 0-183.09 82.13-183.09 183.09s82.13 183.09 183.09 183.09S694.6 394.12 694.6 293.16s-82.13-183.09-183.09-183.09z m0 306.18A123.09 123.09 0 1 1 634.6 293.16a123.23 123.23 0 0 1-123.09 123.09z" fill="#cdcdcd" p-id="2117"></path><path d="M511.51 677.86m-50 0a50 50 0 1 0 100 0 50 50 0 1 0-100 0Z" fill="#cdcdcd" p-id="2118"></path></svg>