<svg t="1691051857366" class="icon" viewBox="0 0 1024 1024" version="1.1" xmlns="http://www.w3.org/2000/svg" p-id="5213" width="200" height="200"><path d="M498.776494 636.321185a102.083951 102.083951 0 0 0 40.83358-8.394271 106.723556 106.723556 0 0 0 33.539161-22.464791 105.181235 105.181235 0 0 0 22.426864-33.640296c5.486617-12.920099 8.280494-26.548148 8.280494-40.846222a101.957531 101.957531 0 0 0-16.851753-56.850963L441.419852 619.203951a103.310222 103.310222 0 0 0 57.356642 17.117234M446.097383 439.852247a103.790617 103.790617 0 0 0-38.229334 38.317827 103.575704 103.575704 0 0 0-14.095802 52.843457 102.437926 102.437926 0 0 0 17.142518 57.596839l145.812544-145.306864a101.56563 101.56563 0 0 0-57.912889-17.521778 103.006815 103.006815 0 0 0-52.717037 14.070519" fill="#cdcdcd" p-id="5214"></path><path d="M556.461827 394.30321c18.343506 7.787457 34.108049 18.330864 47.306272 31.630222 13.160296 13.223506 23.691062 29.000691 31.55437 47.306272 7.838025 18.30558 11.769679 37.546667 11.769679 57.710617 0 20.151309-3.919012 39.430321-11.757037 57.811753-7.838025 18.330864-18.406716 34.196543-31.567012 47.407407-13.198222 13.261432-28.950123 23.754272-47.306272 31.630223a145.913679 145.913679 0 0 1-57.647407 11.782321 145.382716 145.382716 0 0 1-57.647408-11.782321c-18.356148-7.800099-34.120691-18.343506-47.318913-31.630223-13.198222-13.210864-23.728988-29.013333-31.554371-47.407407a145.736691 145.736691 0 0 1-11.794963-57.811753c0-20.201877 3.944296-39.405037 11.794963-57.710617 7.863309-18.30558 18.356148-34.082765 31.554371-47.306272 13.198222-13.210864 28.962765-23.766914 47.306271-31.630222a145.888395 145.888395 0 0 1 57.647408-11.769679c20.100741 0 39.341827 3.919012 57.660049 11.757037m226.392494-88.152494v-9.936593a5.018864 5.018864 0 0 0-5.461333-4.980938h-5.473976a179.440198 179.440198 0 0 0-75.422024-154.055111 175.407407 175.407407 0 0 0-102.235655-35.296395 12.363852 12.363852 0 0 1-6.953086-3.982222 9.46884 9.46884 0 0 0-9.923951-8.950519h-30.770568a58.582914 58.582914 0 0 0-49.645037-27.824987 60.011457 60.011457 0 0 0-43.65274 18.381432c-28.292741 0-134.97837 0-213.396544-2.970864-12.41442 0-12.41442 0-18.874469 5.941728a39.822222 39.822222 0 0 0 0 34.803358c2.022716 1.896296 4.677531 2.983506 7.458766 2.996148A720.12484 720.12484 0 0 1 400.687407 107.33037c3.982222 0 8.44484 5.473975 0 9.936593-25.309235 14.917531-103.23437 40.757728-130.515753 49.708247a19.380148 19.380148 0 0 0-11.90874 11.921383 105.383506 105.383506 0 0 0 0 21.870617 9.418272 9.418272 0 0 0 13.387851 7.458765 851.184198 851.184198 0 0 1 152.373729-69.581432c6.194568-1.441185 12.641975-1.441185 18.861827 0v104.372148c-73.765926 2.022716-133.37284 60.858469-136.495407 134.687605v538.257383c0 26.345877 5.967012 35.77679 23.337086 35.77679h338.956642c17.370074 0 23.324444-9.430914 23.324444-35.77679V381.18084c-3.691457-75.308247-65.649778-134.510617-140.945382-134.687605v-99.39121h27.306666a9.481481 9.481481 0 0 0 9.923951-8.950519c0.12642-2.503111 4.475259-4.980938 6.447407-4.980938a141.767111 141.767111 0 0 1 80.883358 23.868049 149.187951 149.187951 0 0 1 66.522074 131.704099h-3.96958a4.968296 4.968296 0 0 0-5.461333 4.968296v12.427062a49.682963 49.682963 0 0 0-27.799704 42.729877v131.729382c0 1.390617 0.594173 2.743309 1.643457 3.691457a4.93037 4.93037 0 0 0 3.805235 1.264198h97.785679a4.955654 4.955654 0 0 0 4.955654-4.955655V347.894519a49.733531 49.733531 0 0 0-30.264889-41.756445" fill="#cdcdcd" p-id="5215"></path></svg>
