<svg t="1592185414068" class="icon" viewBox="0 0 1024 1024" version="1.1" xmlns="http://www.w3.org/2000/svg" p-id="2229" width="200" height="200"><path d="M469.33 640H256V384h213.33v256z m-128-85.33H384v-85.33h-42.67v85.33z" p-id="2230" fill="#cdcdcd"></path><path d="M596.5 554.67h-169c-0.46 0-0.83-0.38-0.83-0.83v-83.67c0-0.46 0.38-0.83 0.83-0.83h169c0.46 0 0.83 0.38 0.83 0.83v83.67c0 0.45-0.37 0.83-0.83 0.83z" p-id="2231" fill="#cdcdcd"></path><path d="M768 640H554.67V384H768v256z m-128-85.33h42.67v-85.33H640v85.33zM469.33 896H128V128h341.33v213.33H384v-128H213.33v597.34H384v-128h85.33z" p-id="2232" fill="#cdcdcd"></path><path d="M896 896H554.67V682.67H640v128h170.67V213.33H640v128h-85.33V128H896z" p-id="2233" fill="#cdcdcd"></path></svg>