<svg t="1691051709526" class="icon" viewBox="0 0 1024 1024" version="1.1" xmlns="http://www.w3.org/2000/svg" p-id="2717" width="200" height="200"><path d="M787.55 64.24h-551.1c-37.98 0-68.89 30.9-68.89 68.89v800.14c0 14.63 11.86 26.49 26.49 26.49h635.87c14.63 0 26.49-11.86 26.49-26.49V133.12c0.02-37.98-30.88-68.88-68.86-68.88z m15.89 842.53H220.56V133.12c0-8.77 7.13-15.9 15.9-15.9h551.09c8.77 0 15.9 7.13 15.9 15.9v773.65z" p-id="2718" fill="#cdcdcd"></path><path d="M723.96 178.08H300.04c-14.63 0-26.49 11.86-26.49 26.49v254.35c0 14.63 11.86 26.49 26.49 26.49h423.92c14.63 0 26.49-11.86 26.49-26.49V204.58c0-14.64-11.86-26.5-26.49-26.5z m-26.5 254.35H326.54V231.07h370.93v201.36z" p-id="2719" fill="#cdcdcd"></path><path d="M280.76 564.24m-26.49 0a26.49 26.49 0 1 0 52.98 0 26.49 26.49 0 1 0-52.98 0Z" p-id="2720" fill="#cdcdcd"></path><path d="M378.41 265.85h154.84v107.52H378.41zM603.17 265.85h42.41v42.42h-42.41zM603.17 330.96h42.41v42.42h-42.41z" p-id="2721" fill="#cdcdcd"></path></svg>
