<svg t="1626416214391" class="icon" viewBox="0 0 1024 1024" version="1.1" xmlns="http://www.w3.org/2000/svg" p-id="1417" width="200" height="200"><path d="M512 1024C229.717333 1024 0 794.282667 0 512S229.717333 0 512 0s512 229.717333 512 512-229.717333 512-512 512z m0-975.189333C256.682667 48.810667 48.810667 256.682667 48.810667 512S256.682667 975.189333 512 975.189333 975.189333 767.317333 975.189333 512 767.317333 48.810667 512 48.810667z" p-id="1418" fill="#cdcdcd"></path><path d="M512 785.066667c-150.528 0-273.066667-122.538667-273.066667-273.066667s122.538667-273.066667 273.066667-273.066667c9.557333 0 17.066667 7.509333 17.066667 17.066667s-7.509333 17.066667-17.066667 17.066667c-131.754667 0-238.933333 107.178667-238.933333 238.933333s107.178667 238.933333 238.933333 238.933333c111.616 0 207.189333-75.776 232.789333-184.32 2.048-9.216 11.264-14.677333 20.48-12.629333 9.216 2.048 15.018667 11.264 12.629334 20.48A271.837867 271.837867 0 0 1 512 785.066667z" p-id="1419" fill="#cdcdcd"></path><path d="M717.141333 575.829333L768 512l30.037333 76.117333zM356.010667 667.648l176.469333-299.349333 85.333333 89.429333 150.186667-201.728-141.994667 295.253333-87.04-80.213333z" p-id="1420" fill="#cdcdcd"></path></svg>