<svg t="1606122608618" class="icon" viewBox="0 0 1024 1024" version="1.1" xmlns="http://www.w3.org/2000/svg" p-id="3651" width="200" height="200"><path d="M441.450443 529.740532c-150.175665 0-272.296535 116.344883-272.296535 260.744561 0 2.475423 0 5.775987 0.825141 8.25141h543.767929c0-2.475423 0.825141-5.775987 0.825141-8.25141-0.825141-143.574537-122.946011-260.744561-273.121676-260.744561z" fill="#cdcdcd" p-id="3652"></path><path d="M615.555197 330.056406v35.481064h-90.765511c5.775987-12.377115 8.25141-25.579371 8.25141-40.43191 0-55.284448-44.557615-99.842063-99.842063-99.842063s-99.842063 44.557615-99.842063 99.842063c0 15.677679 4.125705 31.355359 10.726833 44.557615-37.131346 7.426269-73.43755 23.103948-103.142627 47.033038-80.86382 64.360999-141.924255 159.252216-144.399677 163.377921-9.076551 14.852538-4.950846 33.830782 9.076551 42.907333 4.950846 3.300564 10.726833 4.950846 16.50282 4.950846 9.901692 0 20.628525-4.950846 26.404513-14.027398 0.825141-0.825141 57.759871-89.940371 131.197421-147.700241 29.705077-23.929089 66.836422-37.131346 105.61805-37.956487v28.879935h-27.229653c-9.901692 0-18.153102 8.25141-18.153103 18.153103v24.75423c0 9.901692 8.25141 18.153102 18.153103 18.153103H519.83884c9.901692 0 18.153102-8.25141 18.153102-18.153103v-24.75423c0-9.901692-8.25141-18.153102-18.153102-18.153103h-27.229654v-28.879935h122.946011v40.43191L932.409347 552.019339V244.241741L615.555197 330.056406z m-182.356164-42.907333c20.628525 0 37.956487 16.50282 37.956487 37.956487 0 20.628525-16.50282 37.956487-37.956487 37.956487s-37.956487-16.50282-37.956487-37.956487c0.825141-20.628525 17.327961-37.956487 37.956487-37.956487z" fill="#cdcdcd" p-id="3653"></path></svg>