<svg t="1587977691879" class="icon" viewBox="0 0 1024 1024" version="1.1" xmlns="http://www.w3.org/2000/svg" p-id="2538" width="128" height="128"><path d="M305.825 1023.996c-68.564-142.022-32.057-223.497 20.48-300.074 57.432-83.7 72.568-166.955 72.568-166.955s44.965 58.766 27.159 150.484c79.691-89.044 94.832-230.176 82.81-284.493C689.599 548.954 766.62 821.873 662.44 1024c553.403-312.54 137.572-780.015 65.444-832.997 24.04 52.982 28.494 142.022-20.035 185.21C625.49 64.11 421.582 0 421.582 0c24.04 161.167-87.709 337.03-195.004 468.813-4.008-64.11-8.013-108.634-41.85-170.074-7.568 116.647-97.057 211.924-121.096 328.567-32.502 158.497 24.484 274.255 242.193 396.69z" p-id="2539"></path></svg>