<svg t="1576744782466" class="icon" viewBox="0 0 1170 1024" version="1.1" xmlns="http://www.w3.org/2000/svg" p-id="2441" width="200" height="200"><path d="M910.08 282.294857h260.059429V348.525714h-260.059429z m-63.378286 198.692572h323.437715v66.230857h-323.437715z m63.378286 198.692571h260.059429v66.230857h-260.059429z m0 0" fill="#C1C1C1" p-id="2442"></path><path d="M651.666286 658.176a39.424 39.424 0 0 1-21.138286-36.571429v-16.566857a41.069714 41.069714 0 0 1 14.628571-31.451428 330.569143 330.569143 0 0 0 117.028572-261.595429c0-172.178286-115.382857-311.259429-258.413714-311.259428S245.357714 141.458286 245.357714 313.673143a334.116571 334.116571 0 0 0 113.773715 258.304 36.571429 36.571429 0 0 1 14.628571 31.451428v21.540572a41.252571 41.252571 0 0 1-21.138286 36.571428C198.217143 739.364571-0.073143 851.968-0.073143 938.057143v84.443428h1007.652572v-84.516571c0-86.089143-199.899429-200.338286-355.949715-279.808z m0 0" fill="#C1C1C1" p-id="2443"></path></svg>