<svg t="1583484456676" class="icon" viewBox="0 0 1024 1024" version="1.1" xmlns="http://www.w3.org/2000/svg" p-id="2231" width="200" height="200"><path d="M791.487651 544.06332c-1.279998-129.663838 105.727868-191.87176 110.591861-194.943756-60.159925-87.99989-153.855808-100.095875-187.263766-101.439874-79.7439-8.12799-155.647805 46.911941-196.095754 46.911942-40.38395 0-102.847871-45.759943-168.959789-44.543945-86.911891 1.279998-167.039791 50.559937-211.839735 128.38384-90.303887 156.671804-23.103971 388.863514 64.895918 515.903355 43.007946 62.207922 94.335882 132.095835 161.663798 129.599838 64.831919-2.559997 89.343888-41.919948 167.743791-41.919948s100.415874 41.919948 169.023788 40.63995c69.759913-1.279998 113.983858-63.423921 156.735805-125.823843 49.343938-72.12791 69.695913-142.015822 70.911911-145.599818-1.535998-0.703999-136.06383-52.287935-137.407828-207.167741z m-128.959839-380.543524c35.775955-43.391946 59.903925-103.487871 53.311933-163.519796-51.455936 2.047997-113.919858 34.239957-150.783811 77.503903-33.151959 38.399952-62.143922 99.647875-54.399932 158.463802 57.471928 4.479994 116.095855-29.247963 151.87181-72.447909z" p-id="2232"></path></svg>