<svg t="1690352828592" class="icon" viewBox="0 0 1024 1024" version="1.1" xmlns="http://www.w3.org/2000/svg" p-id="2400" width="200" height="200"><path d="M984 912h-944c-13.232 0-24-10.768-24-24v-688c0-13.232 10.768-24 24-24h944c13.232 0 24 10.768 24 24v688c0 13.232-10.768 24-24 24zM48 880h928V208H48v672z" fill="#cdcdcd" p-id="2401"></path><path d="M825.984 732.08a15.872 15.872 0 0 1-7.984-2.144L129.632 332.512a16 16 0 1 1 16-27.712l688.368 397.424a15.984 15.984 0 0 1-8.016 29.856z" fill="#cdcdcd" p-id="2402"></path><path d="M357.84 788.48a16 16 0 0 1-13.84-24l154.928-268.336a16 16 0 0 1 27.712 16L371.712 780.48a15.968 15.968 0 0 1-13.872 8zM742.512 714.992a15.984 15.984 0 0 1-13.84-24l94.304-163.328a16 16 0 1 1 27.712 16l-94.304 163.328a15.968 15.968 0 0 1-13.872 8zM207.136 483.68a16 16 0 0 1-13.84-24l47.152-81.664a15.984 15.984 0 1 1 27.712 16l-47.152 81.664a15.968 15.968 0 0 1-13.872 8z" fill="#cdcdcd" p-id="2403"></path><path d="M848.976 266.24c0 89.792-162.976 238.336-162.976 238.336S523.024 356.032 523.024 266.24 596 103.664 686 103.664s162.976 72.784 162.976 162.576z" fill="#cdcdcd" p-id="2404"></path><path d="M686 520.576c-3.856 0-7.712-1.392-10.784-4.176-6.864-6.272-168.192-154.416-168.192-250.16 0-98.464 80.288-178.576 178.976-178.576s178.976 80.112 178.976 178.576c0 95.744-161.328 243.904-168.192 250.16a16.016 16.016 0 0 1-10.784 4.176z m0-400.912c-81.024 0-146.976 65.76-146.976 146.576 0 62.848 97.68 169.28 146.976 216.432 49.28-47.168 146.976-153.632 146.976-216.432 0-80.816-65.952-146.576-146.976-146.576z" fill="#cdcdcd" p-id="2405"></path><path d="M631.68 266.88a54.32 54.192 0 1 0 108.64 0 54.32 54.192 0 1 0-108.64 0Z" fill="#cdcdcd" p-id="2406"></path><path d="M686 337.072c-38.784 0-70.336-31.488-70.336-70.192a70.336 70.336 0 0 1 140.672 0 70.336 70.336 0 0 1-70.336 70.192z m0-108.384a38.304 38.304 0 0 0-38.336 38.192c0 21.056 17.184 38.192 38.336 38.192s38.336-17.136 38.336-38.192a38.304 38.304 0 0 0-38.336-38.192z" fill="#cdcdcd" p-id="2407"></path></svg>
