<svg t="1576744852910" class="icon" viewBox="0 0 1024 1024" version="1.1" xmlns="http://www.w3.org/2000/svg" p-id="1820" width="200" height="200"><path d="M548.503 658h292c20.074 0 36.50000001-16.425 36.5-36.50000001s-16.426-36.50000001-36.5-36.49999999h-292c-20.077 0-36.50000001 16.425-36.5 36.50000001s16.423 36.50000001 36.5 36.49999999zM241.53199999 797.737c14.195 14.195 37.424 14.195 51.61900001 0l154.858-154.856c14.192-14.195 14.192-37.424 0-51.618-14.198-14.195-37.427-14.195-51.619 0L267.342 720.31l-43.014-43.016c-14.198-14.195-37.427-14.195-51.619 0-14.195 14.195-14.195 37.424 0 51.618l68.82300001 68.825zM548.503 804h292c20.074 0 36.50000001-16.425 36.5-36.50000001s-16.426-36.50000001-36.5-36.49999999h-292c-20.077 0-36.50000001 16.425-36.5 36.50000001s16.423 36.50000001 36.5 36.49999999z" p-id="1821"></path><path d="M974.333 110.49999999H804.214V74c0-20.075-16.426-36.50000001-36.5-36.50000001-20.08 0-36.50000001 16.425-36.5 36.50000001v36.50000001H292.792V74c0-20.075-16.426-36.50000001-36.49999999-36.50000001s-36.50000001 16.425-36.50000001 36.50000001v36.50000001H49.667C22.904 110.49999999 1 132.399 1 159.167v778.667C1 964.599 22.904 986.50000001 49.667 986.50000001h924.667c26.769 0 48.667-21.901 48.667-48.66700001V159.167c-0.001-26.768-21.899-48.667-48.668-48.66700001zM950 889.167c0 13.383-10.949 24.333-24.333 24.33299999H98.333C84.949 913.50000001 74 902.55 74 889.167V475.499h876v413.668z m0-486.668H74V207.833c0-13.385 10.949-24.333 24.333-24.33299999h121.459V220c0 20.075 16.426 36.50000001 36.50000001 36.50000001s36.50000001-16.425 36.49999999-36.50000001v-36.50000001h438.422V220c0 20.075 16.42000001 36.50000001 36.5 36.50000001 20.074 0 36.50000001-16.425 36.5-36.50000001v-36.50000001h121.453c13.385 0 24.333 10.949 24.333 24.33300001v194.666z" p-id="1822"></path></svg>