<svg t="1592986386838" class="icon" viewBox="0 0 1024 1024" version="1.1" xmlns="http://www.w3.org/2000/svg" p-id="2283" width="200" height="200"><path d="M939.68 830.24H822.56V308c0-6.24-3.84-12.48-9.6-16.32L548 113.6c-18.24-12-44.16-12-62.4 0l-265.44 175.68c-6.24 3.84-9.6 10.08-9.6 17.28v525.12h-122.88c-14.4 0-25.44 9.6-25.44 21.6v22.08c0 12 11.04 21.6 25.44 21.6H939.68c14.4 0 25.44-9.6 25.44-21.6v-23.04c0-12.48-11.52-22.08-25.44-22.08z m-371.52-530.88c0-10.08 8.16-17.76 28.32-17.76H684.8c-0.48 0 6.72 8.16 6.72 17.76V387.2c0 10.08-7.68 17.76-17.76 17.76h-87.84c-10.08 0-17.76-8.16-17.76-17.76v-87.84z m-229.44 0c0-10.08 8.16-17.76 17.76-17.76h87.84c10.08 0 17.76 8.16 17.76 17.76V387.2c0 10.08-7.68 17.76-17.76 17.76h-87.84c-10.08 0-17.76-8.16-17.76-17.76v-87.84z m30.72 436.8v-14.88h-29.28c-3.84 0-6.72-2.88-6.72-6.72v-27.84c0-3.84 2.88-6.72 6.72-6.72h29.28v-14.88c0-6.24 4.32-10.56 10.56-10.56h41.28v92.16h-41.28c-6.24 0-10.56-4.32-10.56-10.56z m253.44 91.68c-0.96 6.72-6.72 11.04-13.44 10.56h-194.88c-6.72-0.96-11.04-6.72-10.56-13.44s6.72-11.04 13.44-10.56h19.68v-222.24h-6.24c-8.16 0-14.88-6.72-14.88-14.88v-36c0-8.16 6.72-14.88 14.88-14.88h3.84c3.84-36 31.68-64.32 66.72-69.6v-10.56c0-6.72 5.28-12 12-12s12 5.28 12 12v10.56c36 5.28 63.84 33.6 67.68 69.6h3.84c8.16 0 14.4 6.72 14.4 14.88v36c0 8.16-6.24 14.88-14.4 14.88h-6.24V814.4h21.6c6.72 0.48 11.52 6.72 10.56 13.44z m81.12-113.28c0 3.84-2.88 6.72-6.72 6.72h-29.28v14.88c0 6.24-4.32 10.56-10.56 10.56h-40.32v-91.68h40.32c6.24 0 10.56 4.32 10.56 10.56v14.4h29.28c3.84 0.96 6.72 3.84 6.72 7.68v26.88z" p-id="2284" fill="#bfbfbf"></path><path d="M514.4 608c-7.68 0-13.44 6.24-13.44 13.44v108.96c0 7.68 6.24 13.44 13.44 13.44s13.44-6.24 13.44-13.44v-108.96c0-7.2-6.24-13.44-13.44-13.44z" p-id="2285" fill="#bfbfbf"></path></svg>