<svg t="1587627761840" class="icon" viewBox="0 0 1024 1024" version="1.1" xmlns="http://www.w3.org/2000/svg" p-id="2034" width="128" height="128"><path d="M958.709 930.76l-15.486-27.665L839.067 717.01l0.05 0.09c-8.513-15.434-20.39-27.462-33.98-35.473-13.588-8.028-28.83-12.072-44.05-12.068-15.223-0.003-30.466 4.04-44.054 12.068-13.592 8.012-25.467 20.04-33.977 35.474l-30.474 54.444-143.774-140.428c16.205-11.024 26.874-29.606 26.874-50.64V297.17c11.477 4.077 23.772 6.411 36.629 6.411 60.589 0 109.884-49.297 109.884-109.885S632.9 83.81 572.311 83.81s-109.885 49.297-109.885 109.885c0 12.857 2.334 25.152 6.41 36.629h-268.95c-35.456 0-64.297 28.842-64.297 64.297v68.634c0 35.457 28.842 64.298 64.297 64.298h4.148c-6.691 1.64-13.05 4.356-18.687 8.452-22.403 13.202-32.853 47.833-32.853 67.621v190.477L71.996 848.437c-15.1 28.958-3.83 64.8 25.12 79.894l9.895 5.168a58.742 58.742 0 0 0 27.234 6.691 59.576 59.576 0 0 0 52.846-32.165l95.01-191.27v-88.214l65.756 59.653 9.431 182.129c1.844 35.688 32.463 63.263 68.068 61.365 17.29-0.892 33.194-8.47 44.784-21.325 11.589-12.855 17.478-29.458 16.58-46.743l-10.848-209.537 156.756 153.111-69.164 123.566H958.71zM572.311 123.256c38.84 0 70.439 31.599 70.439 70.44s-31.599 70.439-70.44 70.439-70.439-31.599-70.439-70.44 31.599-70.439 70.44-70.439z m-397.277 240V294.62c0-13.703 11.15-24.852 25.359-24.852l270.26 0.005 1.288 0.072c0.49 0.011 0.968 0.011 1.447 0l1.326-0.077c11.892 0.132 21.522 9.845 21.522 21.765v288.943c0 10.52-7.502 19.314-17.438 21.326l-26.091-25.484V422.215a19.713 19.713 0 0 0-12.179-18.22 19.614 19.614 0 0 0-7.538-1.503 19.702 19.702 0 0 0-13.951 5.779l-46.798 46.802c-8.034 8.034-21.11 8.034-29.144 0l-29.243-29.243a20.484 20.484 0 0 1-6.031-14.571 20.466 20.466 0 0 1 6.031-14.572l42.528-42.533a19.721 19.721 0 1 0-13.946-33.668h-91.329c-10.891 0-19.723 8.832-19.723 19.723v19.936l-3.126-3.052c-7.787-7.61-20.28-7.462-27.89 0.33-7.61 7.793-7.461 20.28 0.331 27.89l2.862 2.795h-3.677c-13.7 0-24.85-11.15-24.85-24.853zM413.262 537.79l-40.24-39.304c9.935-2.612 19.338-7.748 27.11-15.524l13.13-13.13v67.958z m-127.297-169a59.603 59.603 0 0 0-16.024 29.012l-5.964-5.825c4.347-8.657 6.854-18.392 6.854-28.723v-3.323h23.994l-8.86 8.86z m-38.907 61.8c-8.203-2.946-16.948-4.646-25.615-4.853 5.254-1.253 10.266-3.122 14.935-5.579l10.68 10.432z m193.785 453.363c-4.534 5.03-10.758 7.99-17.522 8.343-6.813 0.315-13.268-1.953-18.292-6.493-5.036-4.535-7.996-10.753-8.348-17.516l-10.27-198.374L242.658 539.49V707.5l-90.719 182.635c-5.04 9.663-17.015 13.433-26.684 8.392l-9.895-5.167c-9.669-5.041-13.433-17.01-8.387-26.685l84.967-162.896v-200.15c0-13.66 8.409-30.966 13.483-33.663l1.502-0.804 1.348-1.045c2.73-2.13 6.819-3.12 11.441-3.12 8.91 0 19.8 3.686 26.762 10.004l187.153 169.275 2.388 2.86 11.315 218.522c0.347 6.768-1.953 13.267-6.488 18.297z m272.038-53.511l-32.756-31.994 35.42-63.282 0.052-0.091c5.461-9.86 12.52-16.804 20.342-21.44 7.826-4.619 16.477-6.899 25.15-6.903 8.668 0.003 17.319 2.284 25.144 6.902 7.822 4.637 14.882 11.581 20.346 21.443l0.036 0.065L895.3 893.588H626.873l33.298-59.49 25.15 24.565a19.656 19.656 0 0 0 13.78 5.613 19.664 19.664 0 0 0 14.11-5.943c7.611-7.794 7.463-20.28-0.33-27.89z" p-id="2035" fill="#cdcdcd"></path></svg>