<svg t="1576656992084" class="icon" viewBox="0 0 1024 1024" version="1.1" xmlns="http://www.w3.org/2000/svg" p-id="1751" width="200" height="200"><path d="M44.99968 222.7456h934.4M979.39968 253.4656H44.99968a30.72 30.72 0 0 1 0-61.44h934.4a30.72 30.72 0 0 1 0 61.44zM44.99968 420.71552h742.4M787.39968 451.43552h-742.4a30.72 30.72 0 0 1 0-61.44h742.4a30.72 30.72 0 0 1 0 61.44z" fill="" p-id="1752"></path><path d="M44.99968 618.69056h884.48M929.47968 649.41056H44.99968a30.72 30.72 0 0 1 0-61.44h884.48a30.72 30.72 0 0 1 0 61.44z" fill="" p-id="1753"></path><path d="M44.99968 811.5456h577.28M622.27968 842.2656H44.99968a30.72 30.72 0 0 1 0-61.44h577.28a30.72 30.72 0 0 1 0 61.44z" fill="" p-id="1754"></path></svg>