<svg t="1595561421037" class="icon" viewBox="0 0 1024 1024" version="1.1" xmlns="http://www.w3.org/2000/svg" p-id="1571" width="200" height="200"><path d="M752 239c35.346 0 64 28.654 64 64v294c0 35.346-28.654 64-64 64H272c-35.346 0-64-28.654-64-64V303c0-35.346 28.654-64 64-64h480z m0 64H272v294h480V303z" fill="#cdcdcd" p-id="1572"></path><path d="M64 162m32 0l0 0q32 0 32 32l0 512q0 32-32 32l0 0q-32 0-32-32l0-512q0-32 32-32Z" fill="#cdcdcd" p-id="1573"></path><path d="M896 162m32 0l0 0q32 0 32 32l0 512q0 32-32 32l0 0q-32 0-32-32l0-512q0-32 32-32Z" fill="#cdcdcd" p-id="1574"></path><path d="M370 239m32 0l0 0q32 0 32 32l0 358q0 32-32 32l0 0q-32 0-32-32l0-358q0-32 32-32Z" fill="#cdcdcd" p-id="1575"></path><path d="M128 418h80v64h-80zM816 418h80v64h-80z" fill="#cdcdcd" p-id="1576"></path><path d="M516.325 862c-18.454 0.034-36.411-5.87-51.128-16.81l-28.832-21.25c-9.617-7.114-22.866-7.114-32.483 0l-28.832 21.25c-30.239 22.398-71.92 22.398-102.16 0l-28.831-21.25c-9.618-7.114-22.866-7.114-32.484 0l-37.289 27.766c-12.685 9.467-30.778 7.035-40.412-5.43-9.633-12.466-7.16-30.246 5.526-39.712l37.289-27.765c30.24-22.399 71.92-22.399 102.16 0l28.831 21.249c9.618 7.114 22.866 7.114 32.484 0l28.831-21.25c30.24-22.398 71.921-22.398 102.16 0l28.832 21.25c9.617 7.114 22.866 7.114 32.483 0l28.832-21.25c30.24-22.398 71.92-22.398 102.16 0l28.831 21.25c9.618 7.114 22.866 7.114 32.484 0l28.831-21.25c30.24-22.398 71.921-22.398 102.16 0l28.832 21.25c12.685 9.466 15.16 27.246 5.526 39.711-9.634 12.466-27.727 14.897-40.412 5.43l-28.832-21.248c-9.618-7.115-22.866-7.115-32.483 0l-28.832 21.249c-30.24 22.398-71.92 22.398-102.16 0l-28.831-21.25c-9.618-7.114-22.866-7.114-32.484 0l-28.832 21.25c-14.664 10.901-32.547 16.803-50.935 16.81z" fill="#cdcdcd" p-id="1577"></path></svg>