<svg t="1599101280913" class="icon" viewBox="0 0 1024 1024" version="1.1" xmlns="http://www.w3.org/2000/svg" p-id="3288" width="200" height="200"><path d="M396.02 797.45c0-11.24 2.29-21.92 6.29-31.72-36.85-6.33-75.61 5.22-104.07 35.43-11.96 12.74-27.31 18.99-42.66 18.99-15.61 0-30.95-6.24-42.66-18.99-11.97-12.48-30.95-12.48-42.66 0-11.96 12.74-11.96 33.03 0 45.78 47.08 50.2 123.55 50.2 170.63 0 11.71-12.74 27.05-18.99 42.66-18.99 6.76 0 13.48 1.43 19.95 3.87-4.71-10.51-7.48-22.09-7.48-34.37zM396.02 629.1c0-17.95 5.71-34.5 15.29-48.16-39.36-10.02-82.4 0.95-113.11 33.75v-0.01l-0.01 0.01c-23.56 25.17-61.77 25.17-85.34 0-11.78-12.58-30.89-12.58-42.67 0-11.78 12.58-11.79 32.98 0 45.57 47.13 50.33 123.55 50.33 170.69 0v-0.01c15.38-16.42 36.91-21.82 56.6-16.76-0.81-4.71-1.45-9.47-1.45-14.39zM424.54 398.03c-42.2-15.57-90.7-5.92-124.4 30.07v-0.01l-0.01 0.01c-23.56 25.17-61.77 25.17-85.34 0-11.78-12.58-30.89-12.58-42.67 0-11.78 12.58-11.79 32.98 0 45.57 47.13 50.33 123.55 50.33 170.69 0v-0.01c14.61-15.6 34.8-21.26 53.68-17.48 1.26-23.17 11.77-43.69 28.05-58.15zM852.92 801.26c-11.79-12.59-30.89-12.58-42.68 0-23.56 25.17-61.78 25.17-85.34 0-25.71-27.46-60.07-39.58-93.67-36.95v64.52c18.08-2.79 37.07 3.12 51 18v0.01c47.13 50.32 123.55 50.33 170.69-0.01 11.79-12.59 11.79-32.99 0-45.57zM852.92 614.68c-11.79-12.59-30.89-12.58-42.68 0-23.56 25.17-61.78 25.17-85.34 0-25.71-27.46-60.07-39.58-93.67-36.95v64.52c18.08-2.79 37.07 3.12 51.01 18v-0.01 0.01c47.13 50.32 123.55 50.33 170.69-0.01 11.78-12.58 11.78-32.98-0.01-45.56zM854.87 428.13c-11.79-12.59-30.89-12.58-42.68 0-23.56 25.17-61.78 25.17-85.34 0l-0.06 0.02 0.05-0.05c-26.21-27.98-61.39-39.94-95.61-36.68v64.62c18.65-3.55 38.51 2.21 52.94 17.63l0.01-0.01v0.05c47.13 50.32 123.55 50.33 170.69-0.01 11.78-12.59 11.78-32.99 0-45.57zM574 161.82c-0.01-20.82-16.88-37.68-37.7-37.68-20.81 0-37.69 16.87-37.69 37.68v93.93h-17.79c-20.82 0.01-37.69 16.88-37.69 37.69 0 20.82 16.87 37.69 37.69 37.69h17.64v92.43h-17.64c-20.82 0-37.69 16.87-37.69 37.69 0 20.82 16.87 37.69 37.69 37.69h17.64v92.42h-17.64c-20.82 0-37.69 16.87-37.69 37.69 0 20.82 16.87 37.69 37.69 37.69h17.64v92.42h-17.64c-20.82 0-37.69 16.87-37.69 37.69 0 20.82 16.88 37.69 37.69 37.69h17.64v27.25h0.05c0 0.11-0.01 0.22-0.01 0.33 0 20.85 16.9 37.75 37.75 37.75S574 882.97 574 862.12c0-0.11-0.01-0.22-0.01-0.33h0.01V161.82z" p-id="3289" fill="#cdcdcd"></path></svg>