<svg t="1599101050500" class="icon" viewBox="0 0 1024 1024" version="1.1" xmlns="http://www.w3.org/2000/svg" p-id="2870" width="200" height="200"><path d="M261.12 580.608c-8.192 0-15.018667-5.802667-16.725333-13.653333A270.336 270.336 0 0 1 238.933333 512c0-150.528 122.538667-273.066667 273.066667-273.066667s273.066667 122.538667 273.066667 273.066667c0 18.432-1.706667 36.522667-5.461334 54.613333-1.706667 7.850667-8.533333 13.653333-16.725333 13.653334H665.6c-9.557333 0-17.066667-7.509333-17.066667-17.066667s7.509333-17.066667 17.066667-17.066667h82.944A239.2064 239.2064 0 0 0 512 273.066667c-131.754667 0-238.933333 107.178667-238.933333 238.933333 0 11.605333 0.682667 23.210667 2.389333 34.474667L358.4 546.133333c9.557333 0 17.066667 7.509333 17.066667 17.066667s-7.509333 17.066667-17.066667 17.066667l-97.28 0.341333zM768 785.066667h-341.333333c-9.557333 0-17.066667-7.509333-17.066667-17.066667s7.509333-17.066667 17.066667-17.066667h341.333333c9.557333 0 17.066667 7.509333 17.066667 17.066667s-7.509333 17.066667-17.066667 17.066667zM324.266667 785.066667h-68.266667c-9.557333 0-17.066667-7.509333-17.066667-17.066667s7.509333-17.066667 17.066667-17.066667h68.266667c9.557333 0 17.066667 7.509333 17.066666 17.066667s-7.509333 17.066667-17.066666 17.066667z" p-id="2871" fill="#cdcdcd"></path><path d="M512 341.333333c-9.557333 0-17.066667-7.509333-17.066667-17.066666v-68.266667c0-9.557333 7.509333-17.066667 17.066667-17.066667s17.066667 7.509333 17.066667 17.066667v68.266667c0 9.557333-7.509333 17.066667-17.066667 17.066666zM512 580.608a16.042667 16.042667 0 0 1-11.946667-5.12c-6.826667-6.826667-6.826667-17.408 0-24.234667l144.725334-144.725333c6.826667-6.826667 17.408-6.826667 24.234666 0s6.826667 17.408 0 24.234667l-144.725333 144.725333c-3.413333 3.413333-7.850667 5.12-12.288 5.12zM379.221333 396.288a16.042667 16.042667 0 0 1-11.946666-5.12l-48.128-48.469333c-6.826667-6.826667-6.826667-17.408 0-24.234667s17.408-6.826667 24.234666 0l48.128 48.469333c6.826667 6.826667 6.826667 17.408 0 24.234667-3.413333 3.413333-7.850667 5.12-12.288 5.12zM597.333333 699.733333h-341.333333c-9.557333 0-17.066667-7.509333-17.066667-17.066666s7.509333-17.066667 17.066667-17.066667h341.333333c9.557333 0 17.066667 7.509333 17.066667 17.066667s-7.509333 17.066667-17.066667 17.066666zM768 699.733333h-68.266667c-9.557333 0-17.066667-7.509333-17.066666-17.066666s7.509333-17.066667 17.066666-17.066667h68.266667c9.557333 0 17.066667 7.509333 17.066667 17.066667s-7.509333 17.066667-17.066667 17.066666z" p-id="2872" fill="#cdcdcd"></path><path d="M512 563.541333m-34.133333 0a34.133333 34.133333 0 1 0 68.266666 0 34.133333 34.133333 0 1 0-68.266666 0Z" p-id="2873" fill="#cdcdcd"></path><path d="M512 1024C229.717333 1024 0 794.282667 0 512S229.717333 0 512 0s512 229.717333 512 512-229.717333 512-512 512z m0-975.189333C256.682667 48.810667 48.810667 256.682667 48.810667 512S256.682667 975.189333 512 975.189333 975.189333 767.317333 975.189333 512 767.317333 48.810667 512 48.810667z" p-id="2874" fill="#cdcdcd"></path></svg>